# xmcd
# 
# Track frame offsets:
#     150
#     17187
#     36530
#     51924
#     63323
#     79649
#     92002
#     102065
#     115747
#     131014
#     149643
#     165012
# 
# Disc length: 2423
# 
# Revision: 1
# Processed by: cddbd v1.5.2PL0 Copyright (c) Steve Scherf et al.
# Submitted via: fre:ac v1.0.17
# 
DISCID=9b09750c
DTITLE=Lake Street Dive - Side Pony
DYEAR=2016
DGENRE=Folk/Rock
TTITLE0=Godawful Things
TTITLE1=Close to Me
TTITLE2=Call Off Your Dogs
TTITLE3=Spectacular Failure
TTITLE4=I Don't Care About You
TTITLE5=So Long
TTITLE6=How Good It Feels
TTITLE7=Side Pony
TTITLE8=Hell Yeah
TTITLE9=Mistakes
TTITLE10=Can't Stop
TTITLE11=Saving All My Sinning
EXTD=
EXTT0=
EXTT1=
EXTT2=
EXTT3=
EXTT4=
EXTT5=
EXTT6=
EXTT7=
EXTT8=
EXTT9=
EXTT10=
EXTT11=
PLAYORDER=
